<svg width="20" height="20" viewBox="0 0 20 20" fill="none" xmlns="http://www.w3.org/2000/svg">
<g clipPath="url(#clip0_805_20)">
<path d="M15.4528 2.22217H16.5616V3.5505H15.4528V2.22217Z" fill="#66757F"/>
<path d="M16.1112 2.22217H5.00005C4.41068 2.22217 3.84545 2.45629 3.42871 2.87304C3.01196 3.28979 2.77783 3.85502 2.77783 4.44439V17.7777C2.77783 18.3671 3.01196 18.9323 3.42871 19.3491C3.84545 19.7658 4.41068 19.9999 5.00005 19.9999H16.1112C16.7005 19.9999 17.2658 19.7658 17.6825 19.3491C18.0993 18.9323 18.3334 18.3671 18.3334 17.7777V4.44439C18.3334 3.85502 18.0993 3.28979 17.6825 2.87304C17.2658 2.45629 16.7005 2.22217 16.1112 2.22217Z" fill="#55ACEE"/>
<path d="M15 2.22217H3.88885C3.29948 2.22217 2.73425 2.45629 2.3175 2.87304C1.90075 3.28979 1.66663 3.85502 1.66663 4.44439V17.7777C1.66663 18.3671 1.90075 18.9323 2.3175 19.3491C2.73425 19.7658 3.29948 19.9999 3.88885 19.9999H15C15.5893 19.9999 16.1546 19.7658 16.5713 19.3491C16.9881 18.9323 17.2222 18.3671 17.2222 17.7777V4.44439C17.2222 3.85502 16.9881 3.28979 16.5713 2.87304C16.1546 2.45629 15.5893 2.22217 15 2.22217Z" fill="#CCD6DD"/>
<path d="M15.5556 8.33339C15.5556 8.48073 15.4971 8.62204 15.3929 8.72622C15.2887 8.83041 15.1474 8.88894 15 8.88894H3.88893C3.74159 8.88894 3.60028 8.83041 3.49609 8.72622C3.39191 8.62204 3.33337 8.48073 3.33337 8.33339C3.33337 8.18605 3.39191 8.04474 3.49609 7.94055C3.60028 7.83636 3.74159 7.77783 3.88893 7.77783H15C15.1474 7.77783 15.2887 7.83636 15.3929 7.94055C15.4971 8.04474 15.5556 8.18605 15.5556 8.33339ZM15.5556 11.1112C15.5556 11.2585 15.4971 11.3998 15.3929 11.504C15.2887 11.6082 15.1474 11.6667 15 11.6667H3.88893C3.74159 11.6667 3.60028 11.6082 3.49609 11.504C3.39191 11.3998 3.33337 11.2585 3.33337 11.1112C3.33337 10.9638 3.39191 10.8225 3.49609 10.7183C3.60028 10.6141 3.74159 10.5556 3.88893 10.5556H15C15.1474 10.5556 15.2887 10.6141 15.3929 10.7183C15.4971 10.8225 15.5556 10.9638 15.5556 11.1112ZM15.5556 13.8889C15.5556 14.0363 15.4971 14.1776 15.3929 14.2818C15.2887 14.386 15.1474 14.4445 15 14.4445H3.88893C3.74159 14.4445 3.60028 14.386 3.49609 14.2818C3.39191 14.1776 3.33337 14.0363 3.33337 13.8889C3.33337 13.7416 3.39191 13.6003 3.49609 13.4961C3.60028 13.3919 3.74159 13.3334 3.88893 13.3334H15C15.1474 13.3334 15.2887 13.3919 15.3929 13.4961C15.4971 13.6003 15.5556 13.7416 15.5556 13.8889ZM11.1112 16.6667C11.1112 16.8141 11.0526 16.9554 10.9484 17.0596C10.8442 17.1637 10.7029 17.2223 10.5556 17.2223H3.88893C3.74159 17.2223 3.60028 17.1637 3.49609 17.0596C3.39191 16.9554 3.33337 16.8141 3.33337 16.6667C3.33337 16.5194 3.39191 16.3781 3.49609 16.2739C3.60028 16.1697 3.74159 16.1112 3.88893 16.1112H10.5556C10.7029 16.1112 10.8442 16.1697 10.9484 16.2739C11.0526 16.3781 11.1112 16.5194 11.1112 16.6667Z" fill="#99AAB5"/>
<path d="M4.35333 4.85049C3.96333 4.85049 3.64722 4.48049 3.64722 4.02327C3.64722 3.5666 3.96333 3.19604 4.35333 3.19604C4.74277 3.19604 5.05888 3.5666 5.05888 4.02327C5.05888 4.47993 4.74277 4.85049 4.35333 4.85049Z" fill="#292F33"/>
<path d="M4.74611 3.93499C4.71555 3.66832 4.53833 3.49499 4.34111 3.36999C4.07166 3.19943 3.78555 2.80999 3.78555 2.32721C3.78555 1.71388 4.15833 1.16332 4.61888 1.16332C5.07944 1.16332 5.45222 1.6661 5.45222 2.22165H6.56111C6.54944 1.11054 5.6861 0.098877 4.61888 0.098877C3.54444 0.098877 2.67444 1.10943 2.67444 2.32388C2.67444 3.35332 3.25499 4.19666 4.10166 4.50499C4.52388 4.65832 4.78166 4.25666 4.74611 3.93499Z" fill="#66757F"/>
<path d="M7.6867 4.85049C7.2967 4.85049 6.98059 4.48049 6.98059 4.02327C6.98059 3.5666 7.2967 3.19604 7.6867 3.19604C8.07615 3.19604 8.39226 3.5666 8.39226 4.02327C8.39226 4.47993 8.07615 4.85049 7.6867 4.85049Z" fill="#292F33"/>
<path d="M8.07948 3.93499C8.04892 3.66832 7.8717 3.49499 7.67448 3.36999C7.40503 3.19943 7.11892 2.80999 7.11892 2.32721C7.11892 1.71388 7.4917 1.16332 7.95226 1.16332C8.41281 1.16332 8.78559 1.6661 8.78559 2.22165H9.89448C9.88337 1.11054 9.01948 0.098877 7.95226 0.098877C6.87781 0.098877 6.00781 1.10943 6.00781 2.32388C6.00781 3.35332 6.58837 4.19666 7.43503 4.50499C7.85726 4.65832 8.11503 4.25666 8.07948 3.93499Z" fill="#66757F"/>
<path d="M11.02 4.85049C10.63 4.85049 10.3138 4.48049 10.3138 4.02327C10.3138 3.5666 10.63 3.19604 11.02 3.19604C11.4094 3.19604 11.7261 3.5666 11.7261 4.02327C11.7255 4.47993 11.4094 4.85049 11.02 4.85049Z" fill="#292F33"/>
<path d="M11.4128 3.93499C11.3822 3.66832 11.205 3.49499 11.0083 3.36999C10.7389 3.19943 10.4528 2.80999 10.4528 2.32721C10.4528 1.71388 10.8256 1.16332 11.2861 1.16332C11.7467 1.16332 12.1195 1.6661 12.1195 2.22165H13.2283C13.2172 1.11054 12.3533 0.098877 11.2861 0.098877C10.2117 0.098877 9.34167 1.10943 9.34167 2.32388C9.34167 3.35332 9.92223 4.19666 10.7689 4.50499C11.1906 4.65832 11.4483 4.25666 11.4128 3.93499Z" fill="#66757F"/>
<path d="M14.3533 4.85049C13.9633 4.85049 13.6472 4.48049 13.6472 4.02327C13.6472 3.5666 13.9633 3.19604 14.3533 3.19604C14.7428 3.19604 15.0594 3.5666 15.0594 4.02327C15.0589 4.47993 14.7428 4.85049 14.3533 4.85049Z" fill="#292F33"/>
<path d="M14.7462 3.93499C14.7156 3.66832 14.5384 3.49499 14.3417 3.36999C14.0723 3.19943 13.7862 2.80999 13.7862 2.32721C13.7862 1.71388 14.1589 1.16332 14.6195 1.16332C15.08 1.16332 15.4528 1.6661 15.4528 2.22165H16.5617C16.5506 1.11054 15.6867 0.098877 14.6195 0.098877C13.545 0.098877 12.675 1.10943 12.675 2.32388C12.675 3.35332 13.2556 4.19666 14.1023 4.50499C14.5239 4.65832 14.7817 4.25666 14.7462 3.93499Z" fill="#66757F"/>
</g>
<defs>
<clipPath id="clip0_805_20">
<rect width="20" height="20" fill="white"/>
</clipPath>
</defs>
</svg>
